<svg xmlns="http://www.w3.org/2000/svg" xmlns:xlink="http://www.w3.org/1999/xlink" xml:space="preserve" version="1.1" style="shape-rendering:geometricPrecision;text-rendering:geometricPrecision;image-rendering:optimizeQuality;" viewBox="0 0 846.66 1058.325" x="0px" y="0px" fill-rule="evenodd" clip-rule="evenodd"><defs><style type="text/css">
   
    .fil0 {fill:black;fill-rule:nonzero}
   
  </style></defs><g><path class="fil0" d="M407.49 213l425.39 0 -126.67 333.26 -395.93 0 12.99 54.45 342.46 0c37.28,0 67.51,30.23 67.51,67.51 0,37.29 -30.23,67.51 -67.51,67.51 -37.18,0 -67.51,-30.33 -67.51,-67.51 0,-9.52 1.97,-18.59 5.53,-26.81l-234.56 0c3.56,8.22 5.53,17.29 5.53,26.81 0,37.29 -30.22,67.51 -67.51,67.51 -37.23,0 -67.51,-30.27 -67.51,-67.51 0,-27.84 17.06,-52.73 42.85,-62.86l-17.53 -73.51 -160.95 -380.22 -90.29 0 0 -40.7 117.09 0 167.04 394.63 380.33 0 95.73 -251.85 -366.48 0 0 -40.71zm258.24 428.41c-14.86,0 -26.81,11.95 -26.81,26.81 0,14.9 11.91,26.81 26.81,26.81 14.81,0 26.81,-12 26.81,-26.81 0,-14.8 -12,-26.81 -26.81,-26.81zm-358.52 0c-14.8,0 -26.81,12.01 -26.81,26.81 0,14.86 11.95,26.81 26.81,26.81 14.81,0 26.81,-12 26.81,-26.81 0,-14.8 -12,-26.81 -26.81,-26.81z"/></g><text x="0" y="861.66" fill="#000000" font-size="5px" font-weight="bold" font-family="'Helvetica Neue', Helvetica, Arial-Unicode, Arial, Sans-serif">Created by Ikipoh</text><text x="0" y="866.66" fill="#000000" font-size="5px" font-weight="bold" font-family="'Helvetica Neue', Helvetica, Arial-Unicode, Arial, Sans-serif">from the Noun Project</text></svg>